<svg xmlns="http://www.w3.org/2000/svg" xmlns:xlink="http://www.w3.org/1999/xlink" width="500" zoomAndPan="magnify" viewBox="0 0 375 374.999991" height="500" preserveAspectRatio="xMidYMid meet" version="1.0"><path fill="#58595b" d="M 107.03125 151.410156 C 107.996094 149.148438 109.039062 146.929688 110.164062 144.75 C 111.292969 142.566406 112.496094 140.429688 113.777344 138.335938 C 115.058594 136.242188 116.417969 134.199219 117.847656 132.203125 C 119.28125 130.207031 120.78125 128.269531 122.355469 126.382812 C 123.929688 124.5 125.570312 122.671875 127.273438 120.910156 C 128.980469 119.144531 130.75 117.441406 132.582031 115.808594 C 134.410156 114.171875 136.300781 112.605469 138.246094 111.105469 C 140.191406 109.609375 142.1875 108.183594 144.234375 106.828125 C 146.285156 105.476562 148.382812 104.203125 150.523438 103.003906 C 152.664062 101.804688 154.847656 100.683594 157.074219 99.644531 C 159.296875 98.605469 161.554688 97.648438 163.851562 96.773438 C 166.144531 95.898438 168.46875 95.109375 170.820312 94.402344 C 173.171875 93.699219 175.546875 93.078125 177.941406 92.546875 C 180.339844 92.015625 182.753906 91.574219 185.183594 91.21875 C 187.609375 90.863281 190.050781 90.597656 192.5 90.417969 C 194.949219 90.242188 197.398438 90.152344 199.855469 90.15625 L 327.355469 90.15625 C 325.710938 88 324.019531 85.882812 322.273438 83.804688 C 320.527344 81.730469 318.734375 79.695312 316.890625 77.703125 C 315.046875 75.714844 313.15625 73.769531 311.222656 71.871094 C 309.285156 69.96875 307.304688 68.117188 305.28125 66.3125 C 303.257812 64.507812 301.191406 62.75 299.082031 61.046875 C 296.972656 59.339844 294.824219 57.683594 292.636719 56.082031 C 290.449219 54.480469 288.222656 52.929688 285.960938 51.433594 C 283.699219 49.9375 281.402344 48.496094 279.070312 47.109375 C 276.738281 45.722656 274.375 44.394531 271.980469 43.121094 C 269.585938 41.847656 267.160156 40.632812 264.707031 39.472656 C 262.253906 38.316406 259.773438 37.21875 257.269531 36.183594 C 254.761719 35.144531 252.234375 34.167969 249.679688 33.25 C 247.128906 32.332031 244.554688 31.476562 241.960938 30.683594 C 239.367188 29.890625 236.753906 29.160156 234.125 28.488281 C 231.496094 27.820312 228.855469 27.214844 226.195312 26.675781 C 223.539062 26.132812 220.871094 25.652344 218.1875 25.238281 C 215.507812 24.824219 212.820312 24.476562 210.121094 24.191406 C 207.425781 23.90625 204.722656 23.6875 202.015625 23.53125 C 199.304688 23.375 196.597656 23.285156 193.882812 23.257812 C 191.171875 23.230469 188.460938 23.269531 185.75 23.375 C 183.039062 23.480469 180.332031 23.648438 177.628906 23.882812 C 174.929688 24.117188 172.234375 24.414062 169.542969 24.777344 C 166.855469 25.140625 164.179688 25.566406 161.511719 26.058594 C 158.84375 26.550781 156.1875 27.105469 153.546875 27.722656 C 150.90625 28.339844 148.28125 29.023438 145.675781 29.765625 C 143.066406 30.511719 140.476562 31.316406 137.90625 32.183594 C 135.335938 33.050781 132.789062 33.980469 130.265625 34.972656 C 127.738281 35.960938 125.238281 37.011719 122.765625 38.121094 C 120.289062 39.234375 117.84375 40.402344 115.421875 41.628906 C 113.003906 42.855469 110.617188 44.140625 108.257812 45.480469 C 105.902344 46.824219 103.578125 48.222656 101.289062 49.675781 C 98.996094 51.125 96.742188 52.632812 94.523438 54.195312 C 92.304688 55.757812 90.125 57.371094 87.984375 59.035156 C 85.84375 60.699219 83.746094 62.417969 81.6875 64.183594 C 79.628906 65.949219 77.613281 67.761719 75.640625 69.625 C 73.667969 71.488281 71.742188 73.398438 69.863281 75.351562 C 67.980469 77.304688 66.148438 79.304688 64.363281 81.347656 C 62.582031 83.390625 60.84375 85.476562 59.160156 87.601562 C 57.476562 89.726562 55.84375 91.890625 54.261719 94.097656 C 52.679688 96.300781 51.15625 98.539062 49.679688 100.816406 C 48.207031 103.09375 46.789062 105.40625 45.425781 107.75 C 44.0625 110.097656 42.757812 112.472656 41.507812 114.882812 C 40.257812 117.289062 39.070312 119.726562 37.9375 122.191406 C 36.804688 124.65625 35.730469 127.144531 34.71875 129.660156 C 33.707031 132.179688 32.753906 134.71875 31.863281 137.277344 C 30.972656 139.839844 30.140625 142.421875 29.375 145.023438 C 28.605469 147.625 27.902344 150.242188 27.257812 152.878906 C 26.617188 155.515625 26.039062 158.164062 25.523438 160.828125 C 25.007812 163.488281 24.558594 166.164062 24.171875 168.847656 C 23.78125 171.53125 23.460938 174.226562 23.203125 176.925781 C 22.945312 179.625 22.75 182.332031 22.621094 185.039062 C 22.496094 187.75 22.429688 190.460938 22.433594 193.171875 C 22.433594 195.886719 22.5 198.597656 22.632812 201.304688 C 22.761719 204.015625 22.957031 206.71875 23.21875 209.417969 C 23.480469 212.117188 23.804688 214.8125 24.195312 217.496094 C 24.585938 220.179688 25.039062 222.851562 25.558594 225.515625 C 26.074219 228.179688 26.65625 230.828125 27.300781 233.460938 C 27.945312 236.097656 28.652344 238.714844 29.425781 241.316406 C 30.195312 243.914062 31.027344 246.496094 31.921875 249.058594 C 32.816406 251.617188 33.769531 254.15625 34.785156 256.671875 C 35.800781 259.1875 36.875 261.675781 38.011719 264.140625 C 39.144531 266.601562 40.339844 269.039062 41.589844 271.445312 C 42.84375 273.851562 44.148438 276.226562 45.515625 278.570312 C 46.882812 280.914062 48.300781 283.222656 49.777344 285.5 Z M 107.03125 151.410156 " fill-opacity="1" fill-rule="nonzero"/><path fill="#58595b" d="M 299.839844 155.40625 L 196.335938 155.40625 C 194.855469 155.40625 193.382812 155.515625 191.917969 155.730469 C 190.453125 155.945312 189.011719 156.265625 187.59375 156.691406 C 186.175781 157.117188 184.796875 157.640625 183.453125 158.269531 C 182.113281 158.894531 180.824219 159.617188 179.589844 160.433594 C 178.355469 161.25 177.183594 162.152344 176.078125 163.136719 C 174.976562 164.125 173.949219 165.1875 173 166.324219 C 172.050781 167.460938 171.191406 168.660156 170.417969 169.921875 C 169.644531 171.183594 168.96875 172.496094 168.386719 173.859375 L 154.632812 206.152344 L 321.007812 206.152344 C 320.238281 207.953125 319.402344 209.726562 318.503906 211.46875 C 317.605469 213.210938 316.644531 214.917969 315.621094 216.589844 C 314.597656 218.261719 313.511719 219.890625 312.371094 221.484375 C 311.226562 223.078125 310.027344 224.625 308.773438 226.132812 C 307.515625 227.636719 306.207031 229.09375 304.84375 230.503906 C 303.484375 231.914062 302.070312 233.269531 300.609375 234.578125 C 299.148438 235.882812 297.640625 237.136719 296.089844 238.332031 C 294.535156 239.527344 292.941406 240.667969 291.308594 241.746094 C 289.671875 242.828125 288 243.847656 286.289062 244.804688 C 284.578125 245.761719 282.835938 246.65625 281.058594 247.488281 C 279.285156 248.320312 277.480469 249.085938 275.652344 249.785156 C 273.820312 250.484375 271.964844 251.113281 270.085938 251.679688 C 268.210938 252.242188 266.316406 252.738281 264.402344 253.164062 C 262.488281 253.589844 260.5625 253.945312 258.621094 254.230469 C 256.683594 254.511719 254.734375 254.726562 252.78125 254.871094 C 250.828125 255.011719 248.867188 255.085938 246.910156 255.085938 L 155.320312 255.085938 C 153.726562 255.085938 152.140625 255.203125 150.5625 255.433594 C 148.984375 255.664062 147.433594 256.011719 145.90625 256.46875 C 144.378906 256.929688 142.890625 257.496094 141.445312 258.171875 C 140.003906 258.847656 138.613281 259.625 137.285156 260.503906 C 135.953125 261.382812 134.691406 262.355469 133.503906 263.417969 C 132.316406 264.480469 131.210938 265.625 130.1875 266.851562 C 129.167969 268.074219 128.238281 269.367188 127.40625 270.726562 C 126.574219 272.085938 125.84375 273.5 125.21875 274.96875 L 99.480469 335.292969 C 103.167969 337.695312 106.945312 339.953125 110.8125 342.0625 C 114.675781 344.175781 118.617188 346.132812 122.632812 347.933594 C 126.652344 349.738281 130.734375 351.382812 134.878906 352.871094 C 139.023438 354.355469 143.21875 355.679688 147.46875 356.839844 C 151.714844 358 156.003906 358.992188 160.328125 359.820312 C 164.652344 360.648438 169.003906 361.304688 173.382812 361.792969 C 177.757812 362.28125 182.148438 362.597656 186.546875 362.746094 C 190.949219 362.894531 195.351562 362.867188 199.75 362.671875 C 204.148438 362.476562 208.535156 362.113281 212.90625 361.578125 C 217.277344 361.039062 221.617188 360.335938 225.933594 359.460938 C 230.25 358.585938 234.527344 357.546875 238.761719 356.339844 C 242.996094 355.132812 247.179688 353.765625 251.308594 352.234375 C 255.4375 350.703125 259.5 349.011719 263.496094 347.164062 C 267.496094 345.316406 271.414062 343.316406 275.257812 341.164062 C 279.097656 339.011719 282.851562 336.710938 286.511719 334.269531 C 290.175781 331.824219 293.738281 329.242188 297.199219 326.519531 C 300.664062 323.796875 304.015625 320.945312 307.253906 317.964844 C 310.496094 314.984375 313.613281 311.878906 316.613281 308.65625 C 319.613281 305.429688 322.484375 302.09375 325.222656 298.644531 C 327.960938 295.199219 330.5625 291.648438 333.027344 288 C 335.492188 284.347656 337.808594 280.609375 339.980469 276.777344 C 342.15625 272.949219 344.175781 269.039062 346.042969 265.050781 C 347.914062 261.066406 349.625 257.011719 351.175781 252.890625 C 352.730469 248.769531 354.121094 244.59375 355.351562 240.367188 C 356.582031 236.136719 357.644531 231.867188 358.539062 227.554688 C 359.4375 223.242188 360.164062 218.90625 360.722656 214.535156 C 361.28125 210.167969 361.671875 205.785156 361.890625 201.386719 C 362.109375 196.988281 362.15625 192.589844 362.03125 188.1875 C 361.910156 183.785156 361.613281 179.394531 361.148438 175.015625 C 360.683594 170.636719 360.050781 166.28125 359.246094 161.953125 C 358.441406 157.621094 357.472656 153.328125 356.332031 149.074219 C 355.195312 144.820312 353.894531 140.617188 352.429688 136.464844 C 348.761719 139.507812 344.859375 142.207031 340.722656 144.570312 C 336.585938 146.9375 332.277344 148.925781 327.792969 150.539062 C 323.3125 152.152344 318.722656 153.371094 314.027344 154.1875 C 309.335938 155.003906 304.605469 155.410156 299.839844 155.40625 Z M 299.839844 155.40625 " fill-opacity="1" fill-rule="nonzero"/><path fill="#268b6c" d="M 107.03125 151.410156 C 107.996094 149.148438 109.039062 146.929688 110.164062 144.75 C 111.292969 142.566406 112.496094 140.429688 113.777344 138.335938 C 115.058594 136.242188 116.417969 134.199219 117.847656 132.203125 C 119.28125 130.207031 120.78125 128.269531 122.355469 126.382812 C 123.929688 124.5 125.570312 122.671875 127.273438 120.910156 C 128.980469 119.144531 130.75 117.441406 132.582031 115.808594 C 134.410156 114.171875 136.300781 112.605469 138.246094 111.105469 C 140.191406 109.609375 142.1875 108.183594 144.234375 106.828125 C 146.285156 105.476562 148.382812 104.203125 150.523438 103.003906 C 152.664062 101.804688 154.847656 100.683594 157.074219 99.644531 C 159.296875 98.605469 161.554688 97.648438 163.851562 96.773438 C 166.144531 95.898438 168.46875 95.109375 170.820312 94.402344 C 173.171875 93.699219 175.546875 93.078125 177.941406 92.546875 C 180.339844 92.015625 182.753906 91.574219 185.183594 91.21875 C 187.609375 90.863281 190.050781 90.597656 192.5 90.417969 C 194.949219 90.242188 197.398438 90.152344 199.855469 90.15625 L 327.332031 90.15625 C 325.691406 88 323.996094 85.882812 322.25 83.808594 C 320.503906 81.730469 318.710938 79.699219 316.867188 77.710938 C 315.027344 75.71875 313.136719 73.773438 311.199219 71.875 C 309.265625 69.976562 307.285156 68.125 305.261719 66.320312 C 303.234375 64.515625 301.167969 62.761719 299.0625 61.054688 C 296.953125 59.351562 294.804688 57.695312 292.617188 56.09375 C 290.429688 54.492188 288.203125 52.941406 285.941406 51.445312 C 283.679688 49.953125 281.382812 48.511719 279.054688 47.125 C 276.722656 45.738281 274.359375 44.410156 271.964844 43.136719 C 269.570312 41.863281 267.144531 40.648438 264.695312 39.492188 C 262.242188 38.335938 259.761719 37.238281 257.257812 36.203125 C 254.75 35.164062 252.222656 34.1875 249.667969 33.269531 C 247.117188 32.355469 244.542969 31.5 241.953125 30.707031 C 239.359375 29.914062 236.746094 29.183594 234.121094 28.515625 C 231.492188 27.84375 228.847656 27.242188 226.191406 26.699219 C 223.535156 26.15625 220.867188 25.679688 218.1875 25.265625 C 215.503906 24.851562 212.816406 24.503906 210.121094 24.21875 C 207.421875 23.933594 204.722656 23.710938 202.015625 23.558594 C 199.308594 23.402344 196.597656 23.3125 193.886719 23.285156 C 191.175781 23.257812 188.464844 23.296875 185.753906 23.402344 C 183.042969 23.507812 180.339844 23.675781 177.636719 23.910156 C 174.933594 24.144531 172.238281 24.441406 169.550781 24.804688 C 166.867188 25.167969 164.1875 25.59375 161.519531 26.085938 C 158.855469 26.578125 156.199219 27.132812 153.558594 27.75 C 150.917969 28.367188 148.296875 29.050781 145.6875 29.792969 C 143.082031 30.535156 140.492188 31.34375 137.921875 32.210938 C 135.351562 33.078125 132.804688 34.007812 130.28125 34.996094 C 127.757812 35.988281 125.257812 37.039062 122.785156 38.148438 C 120.308594 39.257812 117.863281 40.425781 115.445312 41.652344 C 113.027344 42.878906 110.636719 44.164062 108.28125 45.503906 C 105.925781 46.847656 103.601562 48.242188 101.3125 49.695312 C 99.023438 51.148438 96.769531 52.65625 94.550781 54.214844 C 92.332031 55.777344 90.152344 57.390625 88.011719 59.054688 C 85.871094 60.71875 83.773438 62.433594 81.714844 64.199219 C 79.65625 65.964844 77.640625 67.78125 75.671875 69.640625 C 73.699219 71.503906 71.773438 73.414062 69.894531 75.367188 C 68.011719 77.320312 66.179688 79.320312 64.398438 81.363281 C 62.613281 83.402344 60.878906 85.488281 59.195312 87.613281 C 57.507812 89.738281 55.878906 91.902344 54.296875 94.105469 C 52.714844 96.308594 51.1875 98.550781 49.714844 100.824219 C 48.242188 103.101562 46.824219 105.414062 45.460938 107.757812 C 44.097656 110.101562 42.792969 112.476562 41.542969 114.886719 C 40.292969 117.292969 39.105469 119.726562 37.972656 122.191406 C 36.839844 124.65625 35.765625 127.144531 34.753906 129.660156 C 33.742188 132.175781 32.789062 134.714844 31.898438 137.277344 C 31.007812 139.835938 30.175781 142.417969 29.410156 145.019531 C 28.640625 147.621094 27.9375 150.238281 27.296875 152.871094 C 26.652344 155.507812 26.074219 158.15625 25.558594 160.816406 C 25.042969 163.480469 24.59375 166.152344 24.203125 168.835938 C 23.816406 171.523438 23.496094 174.214844 23.238281 176.914062 C 22.976562 179.613281 22.785156 182.316406 22.65625 185.023438 C 22.527344 187.734375 22.464844 190.445312 22.464844 193.15625 C 22.464844 195.867188 22.53125 198.578125 22.664062 201.285156 C 22.792969 203.996094 22.988281 206.699219 23.25 209.398438 C 23.511719 212.097656 23.835938 214.789062 24.222656 217.472656 C 24.613281 220.15625 25.066406 222.828125 25.585938 225.492188 C 26.101562 228.152344 26.683594 230.800781 27.328125 233.4375 C 27.972656 236.070312 28.679688 238.6875 29.449219 241.289062 C 30.21875 243.886719 31.050781 246.46875 31.941406 249.027344 C 32.835938 251.589844 33.789062 254.125 34.804688 256.640625 C 35.820312 259.15625 36.894531 261.644531 38.027344 264.109375 C 39.164062 266.570312 40.355469 269.007812 41.605469 271.410156 C 42.855469 273.816406 44.164062 276.191406 45.53125 278.535156 C 46.894531 280.878906 48.3125 283.1875 49.789062 285.464844 Z M 107.03125 151.410156 " fill-opacity="1" fill-rule="nonzero"/><path fill="#414042" d="M 299.839844 155.40625 L 196.335938 155.40625 C 194.855469 155.40625 193.382812 155.515625 191.917969 155.730469 C 190.453125 155.945312 189.011719 156.265625 187.59375 156.691406 C 186.175781 157.117188 184.796875 157.640625 183.453125 158.269531 C 182.113281 158.894531 180.824219 159.617188 179.589844 160.433594 C 178.355469 161.25 177.183594 162.152344 176.078125 163.136719 C 174.976562 164.125 173.949219 165.1875 173 166.324219 C 172.050781 167.460938 171.191406 168.660156 170.417969 169.921875 C 169.644531 171.183594 168.96875 172.496094 168.386719 173.859375 L 154.632812 206.152344 L 181.679688 206.152344 L 186.390625 195.128906 C 186.972656 193.765625 187.648438 192.453125 188.421875 191.191406 C 189.195312 189.925781 190.054688 188.726562 191.003906 187.589844 C 191.953125 186.453125 192.976562 185.390625 194.082031 184.402344 C 195.1875 183.417969 196.355469 182.515625 197.589844 181.699219 C 198.828125 180.882812 200.117188 180.160156 201.457031 179.53125 C 202.796875 178.90625 204.175781 178.378906 205.597656 177.953125 C 207.015625 177.523438 208.457031 177.203125 209.921875 176.988281 C 211.386719 176.773438 212.859375 176.664062 214.339844 176.664062 L 295.519531 176.664062 C 329.464844 177.101562 360.464844 149.941406 368.382812 118.792969 C 366.507812 121.601562 364.464844 124.28125 362.261719 126.839844 C 360.054688 129.394531 357.703125 131.808594 355.203125 134.074219 C 352.699219 136.34375 350.070312 138.449219 347.308594 140.390625 C 344.546875 142.335938 341.679688 144.101562 338.699219 145.691406 C 335.722656 147.28125 332.660156 148.683594 329.507812 149.898438 C 326.359375 151.113281 323.144531 152.128906 319.871094 152.949219 C 316.59375 153.765625 313.28125 154.382812 309.929688 154.792969 C 306.582031 155.207031 303.21875 155.410156 299.839844 155.40625 Z M 299.839844 155.40625 " fill-opacity="1" fill-rule="nonzero"/><path fill="#414042" d="M 246.910156 255.085938 L 155.320312 255.085938 C 153.726562 255.085938 152.140625 255.203125 150.5625 255.433594 C 148.984375 255.664062 147.433594 256.011719 145.90625 256.46875 C 144.378906 256.929688 142.890625 257.496094 141.445312 258.171875 C 140.003906 258.847656 138.613281 259.625 137.285156 260.503906 C 135.953125 261.382812 134.691406 262.355469 133.503906 263.417969 C 132.316406 264.480469 131.210938 265.625 130.1875 266.851562 C 129.167969 268.074219 128.238281 269.367188 127.40625 270.726562 C 126.574219 272.085938 125.84375 273.5 125.21875 274.96875 L 87.558594 363.207031 C 101.3125 363.355469 117.492188 354.738281 121.308594 347.371094 L 143.152344 296.226562 C 143.777344 294.757812 144.507812 293.347656 145.339844 291.984375 C 146.175781 290.625 147.101562 289.335938 148.125 288.109375 C 149.144531 286.886719 150.25 285.742188 151.441406 284.679688 C 152.628906 283.617188 153.886719 282.648438 155.21875 281.769531 C 156.550781 280.890625 157.9375 280.113281 159.382812 279.4375 C 160.828125 278.761719 162.3125 278.195312 163.839844 277.734375 C 165.367188 277.277344 166.921875 276.933594 168.496094 276.699219 C 170.074219 276.46875 171.660156 276.355469 173.257812 276.355469 L 252.089844 276.355469 C 284.359375 276.355469 321.007812 247.234375 321.007812 206.152344 C 320.238281 207.953125 319.402344 209.726562 318.503906 211.46875 C 317.605469 213.210938 316.644531 214.917969 315.621094 216.589844 C 314.597656 218.261719 313.511719 219.890625 312.371094 221.484375 C 311.226562 223.078125 310.027344 224.625 308.773438 226.132812 C 307.515625 227.636719 306.207031 229.09375 304.84375 230.503906 C 303.484375 231.914062 302.070312 233.269531 300.609375 234.578125 C 299.148438 235.882812 297.640625 237.136719 296.089844 238.332031 C 294.535156 239.527344 292.941406 240.667969 291.308594 241.746094 C 289.671875 242.828125 288 243.847656 286.289062 244.804688 C 284.578125 245.761719 282.835938 246.65625 281.058594 247.488281 C 279.285156 248.320312 277.480469 249.085938 275.652344 249.785156 C 273.820312 250.484375 271.964844 251.113281 270.085938 251.679688 C 268.210938 252.242188 266.316406 252.738281 264.402344 253.164062 C 262.488281 253.589844 260.5625 253.945312 258.621094 254.230469 C 256.683594 254.511719 254.734375 254.726562 252.78125 254.871094 C 250.828125 255.011719 248.867188 255.085938 246.910156 255.085938 Z M 246.910156 255.085938 " fill-opacity="1" fill-rule="nonzero"/></svg>